<?xml version="1.0" encoding="UTF-8" standalone="no"?>
<svg width="287px" height="122px" viewBox="0 0 287 122" version="1.1" xmlns="http://www.w3.org/2000/svg" xmlns:xlink="http://www.w3.org/1999/xlink" xmlns:sketch="http://www.bohemiancoding.com/sketch/ns">
    <!-- Generator: Sketch Beta 3.3.2 (12041) - http://www.bohemiancoding.com/sketch -->
    <title>Roof</title>
    <desc>Created with Sketch Beta.</desc>
    <defs></defs>
    <g id="Page-1" stroke="none" stroke-width="1" fill="none" fill-rule="evenodd" sketch:type="MSPage">
        <g id="Desktop-HD" sketch:type="MSArtboardGroup" transform="translate(-359.000000, -239.000000)" fill="#FFFFFF">
            <g id="p1" sketch:type="MSLayerGroup" transform="translate(0.000000, -3.000000)">
                <g id="是时候起飞了！-+-Group-+-Roof-是一个能帮助你构建高质量单页应-+-Roof" transform="translate(359.000000, 242.000000)" sketch:type="MSShapeGroup">
                    <path d="M37.3554688,0.47265625 C53.7748217,3.3502748 61.984375,11.2212898 61.984375,24.0859375 L61.984375,27.8945312 C61.984375,42.1133523 52.928476,56.2473256 34.8164062,70.296875 L34.8164062,71.0585938 C64.1004068,97.2957041 84.4127037,110.414062 95.7539062,110.414062 C97.7851664,111.768236 98.8007812,113.630196 98.8007812,116 C98.8007812,119.04689 96.5156479,120.993485 91.9453125,121.839844 C80.60411,121.839844 59.6147365,108.298313 28.9765625,81.2148438 L20.0898438,76.6445312 L19.5820312,76.6445312 C23.3060082,92.0482541 25.1679688,103.727825 25.1679688,111.683594 C25.1679688,115.407571 23.0521045,117.946608 18.8203125,119.300781 C12.5572604,119.300781 8.57943555,104.066559 6.88671875,73.5976562 C2.65492676,59.7173785 0.5390625,48.4609807 0.5390625,39.828125 L0.5390625,38.0507812 C0.5390625,25.6939486 3.24736875,19.515625 8.6640625,19.515625 L12.4726562,21.546875 L13.7421875,21.546875 C20.1745113,7.49732559 27.7916227,0.47265625 36.59375,0.47265625 L37.3554688,0.47265625 Z M19.5820312,62.171875 C32.1081355,62.171875 42.264284,51.7618229 50.0507812,30.9414062 L50.0507812,23.3242188 C50.0507812,17.39971 45.9883219,13.845058 37.8632812,12.6601562 L36.59375,12.6601562 C28.130166,12.6601562 22.6289189,26.6248604 20.0898438,54.5546875 L19.5820312,62.171875 Z M139.933594,39.3203125 C150.089895,39.3203125 157.707006,46.7681547 162.785156,61.6640625 L163.546875,65.9804688 C163.546875,80.5378332 156.776109,95.348883 143.234375,110.414062 C137.817681,115.492213 132.316434,118.03125 126.730469,118.03125 C118.7747,118.03125 113.019549,113.376349 109.464844,104.066406 C108.279942,99.6653426 107.6875,95.8567869 107.6875,92.640625 L107.6875,90.1015625 C107.6875,68.7733309 115.47388,52.5234934 131.046875,41.3515625 C133.924494,39.9973891 136.886704,39.3203125 139.933594,39.3203125 L139.933594,39.3203125 Z M119.621094,92.1328125 C119.621094,101.442755 121.990862,106.097656 126.730469,106.097656 C136.717498,106.097656 144.927051,93.4024707 151.359375,68.0117188 L151.359375,64.203125 C149.158843,55.739541 144.927115,51.5078125 138.664062,51.5078125 C136.124987,51.5078125 134.855469,53.2005039 134.855469,56.5859375 C134.855469,58.955741 132.147163,60.8177016 126.730469,62.171875 C121.990862,69.9583723 119.621094,79.9452516 119.621094,92.1328125 L119.621094,92.1328125 Z M204.933594,39.3203125 C215.089895,39.3203125 222.707006,46.7681547 227.785156,61.6640625 L228.546875,65.9804688 C228.546875,80.5378332 221.776109,95.348883 208.234375,110.414062 C202.817681,115.492213 197.316434,118.03125 191.730469,118.03125 C183.7747,118.03125 178.019549,113.376349 174.464844,104.066406 C173.279942,99.6653426 172.6875,95.8567869 172.6875,92.640625 L172.6875,90.1015625 C172.6875,68.7733309 180.47388,52.5234934 196.046875,41.3515625 C198.924494,39.9973891 201.886704,39.3203125 204.933594,39.3203125 L204.933594,39.3203125 Z M184.621094,92.1328125 C184.621094,101.442755 186.990862,106.097656 191.730469,106.097656 C201.717498,106.097656 209.927051,93.4024707 216.359375,68.0117188 L216.359375,64.203125 C214.158843,55.739541 209.927115,51.5078125 203.664062,51.5078125 C201.124987,51.5078125 199.855469,53.2005039 199.855469,56.5859375 C199.855469,58.955741 197.147162,60.8177016 191.730469,62.171875 C186.990862,69.9583723 184.621094,79.9452516 184.621094,92.1328125 L184.621094,92.1328125 Z M269.171875,24.59375 C275.604199,24.59375 280.005196,31.3645156 282.375,44.90625 L282.375,45.6679688 C282.375,48.714859 280.259136,50.5768195 276.027344,51.2539062 C272.64191,51.2539062 270.356777,47.0221777 269.171875,38.5585938 L268.410156,38.0507812 L265.871094,38.0507812 C262.993475,42.4518449 261.554688,48.1223611 261.554688,55.0625 L262.0625,65.21875 C267.648465,65.21875 273.572885,63.7799623 279.835938,60.9023438 C282.375013,60.9023438 284.744781,62.7643043 286.945312,66.4882812 C286.945312,71.904975 279.328201,75.5442615 264.09375,77.40625 L269.171875,110.414062 C269.171875,113.291681 266.802107,115.153642 262.0625,116 C257.830708,116 255.714844,109.483138 255.714844,96.4492188 L251.90625,79.1835938 L238.703125,81.2148438 C235.825506,81.2148438 234.132815,79.0989795 233.625,74.8671875 C233.625,70.8046672 239.126247,68.2656301 250.128906,67.25 L249.367188,54.5546875 C251.567719,34.5806293 258.169216,24.59375 269.171875,24.59375 L269.171875,24.59375 Z" id="Roof"></path>
                </g>
            </g>
        </g>
    </g>
</svg>